<?xml version="1.0" encoding="UTF-8" standalone="no"?>
<!-- Created with Inkscape (http://www.inkscape.org/) -->

<svg
   xmlns:dc="http://purl.org/dc/elements/1.1/"
   xmlns:cc="http://creativecommons.org/ns#"
   xmlns:rdf="http://www.w3.org/1999/02/22-rdf-syntax-ns#"
   xmlns:svg="http://www.w3.org/2000/svg"
   xmlns="http://www.w3.org/2000/svg"
   xmlns:sodipodi="http://sodipodi.sourceforge.net/DTD/sodipodi-0.dtd"
   xmlns:inkscape="http://www.inkscape.org/namespaces/inkscape"
   width="2303.7812"
   height="987.33478"
   id="svg3081"
   version="1.1"
   inkscape:version="0.92.3 (2405546, 2018-03-11)"
   sodipodi:docname="2x2_5.svg">
  <defs
     id="defs3083" />
  <sodipodi:namedview
     id="base"
     pagecolor="#ffffff"
     bordercolor="#666666"
     borderopacity="1.0"
     inkscape:pageopacity="0.0"
     inkscape:pageshadow="2"
     inkscape:zoom="0.088388348"
     inkscape:cx="130.4802"
     inkscape:cy="934.57287"
     inkscape:document-units="px"
     inkscape:current-layer="layer1"
     showgrid="false"
     fit-margin-top="0"
     fit-margin-left="0"
     fit-margin-right="0"
     fit-margin-bottom="0"
     inkscape:window-width="1280"
     inkscape:window-height="712"
     inkscape:window-x="-4"
     inkscape:window-y="-4"
     inkscape:window-maximized="1" />
  <metadata
     id="metadata3086">
    <rdf:RDF>
      <cc:Work
         rdf:about="">
        <dc:format>image/svg+xml</dc:format>
        <dc:type
           rdf:resource="http://purl.org/dc/dcmitype/StillImage" />
        <dc:title></dc:title>
      </cc:Work>
    </rdf:RDF>
  </metadata>
  <g
     inkscape:label="Layer 1"
     inkscape:groupmode="layer"
     id="layer1"
     transform="translate(-161.42857,-355.50504)">
    <rect
       style="fill:#000000;fill-opacity:1;stroke-width:8.99914551"
       id="rect3026"
       width="2303.7812"
       height="987.33478"
       x="161.42857"
       y="355.50504" />
    <path
       id="path316"
       style="fill:#ffffff;fill-opacity:1;fill-rule:nonzero;stroke-width:8.99914551"
       d="m 1602.4524,1088.8449 -218.6522,-235.00593 216.4949,-234.37942 -125.4711,-0.55615 -0.63,0.27811 c -2.0151,-0.27811 -3.897,-0.38967 -6.0543,-0.38967 -14.7531,0 -27.9056,6.81963 -36.674,17.32785 l -0.334,0.16642 -124.9142,134.72648 -124.2178,-134.72648 c -8.6987,-10.57776 -21.9903,-17.39749 -36.8832,-17.39749 -0.1152,0 -0.3338,0.0451 -0.5579,0.0451 l -0.224,-0.22404 -134.1001,-0.33568 219.0697,235.49317 -215.8687,233.75313 130.4816,1.114 0.3339,-0.224 h 0.6965 c 15.3098,0 28.8799,-7.1676 37.5786,-18.4412 L 1306.1878,937.49979 1431.45,1071.8783 h 0.044 c 8.6987,10.2995 21.6426,16.8409 36.2563,16.8409 0.3897,0 0.8344,0 1.3247,-0.1153 l 0.3897,0.2781 h 132.9172 z m 80.5297,35.6998 c 0,0 1.114,-249.82871 0,-244.74854 2.7112,-68.40715 48.2954,-95.61698 94.4337,-99.65317 2.5722,-0.22402 319.4187,0 319.4187,0 V 710.69208 H 1682.9827 V 572.69494 c 0,0 454.8409,-0.0451 457.0674,0 91.4413,2.71117 94.7817,99.09625 94.7817,99.09625 v 246.27952 l -413.9221,0.0451 v 68.47657 h 413.8524 l 0.046,137.92772 h -551.85 z m -1291.17527,1.1271 c 0,0 1.11403,-249.8286 0,-244.7484 2.71116,-68.40718 48.29544,-95.61697 94.50337,-99.6532 2.57206,-0.22403 319.41861,0 319.41861,0 V 711.81928 H 391.80683 v -137.9972 c 0,0 454.84094,0 456.99839,0 91.51096,2.71685 94.85125,99.09636 94.85125,99.09636 v 246.27951 l -413.92217,0.0451 v 68.47663 H 943.65647 V 1125.6474 H 391.80683 Z"
       inkscape:connector-curvature="0" />
  </g>
</svg>
